<mxfile host="app.diagrams.net" modified="2023-09-26T15:26:17.878Z" agent="Mozilla/5.0 (Macintosh; Intel Mac OS X 10_15_7) AppleWebKit/605.1.15 (KHTML, like Gecko) Version/16.6 Safari/605.1.15" etag="5La4Cl_KCKECtgbRGKsV" version="21.8.2" type="github">
  <diagram name="Страница — 1" id="Mq8GfilcaXEJIos37CIm">
    <mxGraphModel dx="838" dy="554" grid="1" gridSize="10" guides="1" tooltips="1" connect="1" arrows="1" fold="1" page="1" pageScale="1" pageWidth="827" pageHeight="1169" math="0" shadow="0">
      <root>
        <mxCell id="0" />
        <mxCell id="1" parent="0" />
      </root>
    </mxGraphModel>
  </diagram>
</mxfile>
